<?xml version="1.0" encoding="utf-8"?>
<!-- Generator: Adobe Illustrator 23.0.3, SVG Export Plug-In . SVG Version: 6.00 Build 0)  -->
<svg version="1.1" id="Calque_1" xmlns="http://www.w3.org/2000/svg" xmlns:xlink="http://www.w3.org/1999/xlink" x="0px" y="0px"
	 viewBox="0 0 1366 768" style="enable-background:new 0 0 1366 768;" xml:space="preserve">
<style type="text/css">
	.st0{fill:#FFFFFF;}
	.st1{fill:#FFC236;}
	.st2{fill:#2E4766;}
</style>
<g>
	<circle class="st0" cx="689.5" cy="383.5" r="71.5"/>
</g>
<g>
	<path class="st1" d="M676.49,352c0,9.39,12.34,25.15,17,17c4-7,17-7.61,17-17s-8.61-16-18-16C683.11,336,676.49,342.61,676.49,352z
		"/>
	<path class="st1" d="M696.49,371c0,2,18,34,20,47s-4,26-25,6s-25.21-68.07-4-61C693.49,365,696.49,371,696.49,371z"/>
	<path class="st2" d="M681.85,339.62c0,0-69.36,31.38-73.36,39.38s34,20,53-3S681.85,339.62,681.85,339.62z"/>
	<path class="st2" d="M706.49,345c0,0-19,71-33,83s-14-29-7-40S706.49,345,706.49,345z"/>
	<path class="st1" d="M702.49,336.35c4.4-9.58,16.77-10.25,24,5.65c5,11,4,18,4,18s-20-2-24-8S700.49,340.71,702.49,336.35z"/>
	<path class="st2" d="M704.88,388.59c0,0-28.88-1.02-30.63-4.3c-1.75-3.28,2.25,12.51,2.25,12.51S702.27,392.18,704.88,388.59z"/>
	<path class="st2" d="M712.54,405.49c0,0-28.33,7.11-30.69,4.31c-2.36-2.8,1.34,4.77,7.49,11.99
		C695.49,429,712.54,405.49,712.54,405.49z"/>
	<path class="st2" d="M701.27,431.7c0,0,14.46-4.67,15.34-5.68c0,0-0.59,6.61-4.85,7.8S706.04,434.39,701.27,431.7z"/>
</g>
</svg>
