<?xml version="1.0" encoding="utf-8"?>
<!-- Generator: Adobe Illustrator 23.1.1, SVG Export Plug-In . SVG Version: 6.00 Build 0)  -->
<svg version="1.1" id="Calque_1" xmlns="http://www.w3.org/2000/svg" xmlns:xlink="http://www.w3.org/1999/xlink" x="0px" y="0px"
	 viewBox="0 0 200 200" style="enable-background:new 0 0 200 200;" xml:space="preserve">
<style type="text/css">
	.st0{fill:#FFFFFF;}
	.st1{fill:#FFC236;}
	.st2{fill:#2E4766;}
</style>
<g>
	<g>
		<circle class="st0" cx="103.43" cy="98.29" r="85.57"/>
	</g>
	<g>
		<path class="st1" d="M87.86,60.59c0,11.24,14.77,30.1,20.35,20.35c4.79-8.38,20.35-9.11,20.35-20.35s-10.3-19.15-21.54-19.15
			C95.78,41.44,87.86,49.36,87.86,60.59z"/>
		<path class="st1" d="M111.79,83.33c0,2.39,21.54,40.69,23.94,56.25c2.39,15.56-4.79,31.12-29.92,7.18s-30.17-81.47-4.79-73.01
			C108.2,76.15,111.79,83.33,111.79,83.33z"/>
		<path class="st2" d="M94.27,45.78c0,0-83.01,37.56-87.8,47.13s40.69,23.94,63.43-3.59S94.27,45.78,94.27,45.78z"/>
		<path class="st2" d="M123.76,52.22c0,0-22.74,84.97-39.5,99.34s-16.76-34.71-8.38-47.87S123.76,52.22,123.76,52.22z"/>
		<path class="st1" d="M118.97,41.86c5.27-11.47,20.07-12.27,28.72,6.76c5.98,13.17,4.79,21.54,4.79,21.54s-23.94-2.39-28.72-9.57
			S116.58,47.08,118.97,41.86z"/>
		<path class="st2" d="M121.83,104.39c0,0-34.56-1.22-36.66-5.15c-2.09-3.93,2.69,14.97,2.69,14.97S118.71,108.68,121.83,104.39z"/>
		<path class="st2" d="M131,124.61c0,0-33.91,8.51-36.73,5.16s1.6,5.71,8.96,14.35C110.6,152.75,131,124.61,131,124.61z"/>
		<path class="st2" d="M117.51,155.98c0,0,17.31-5.59,18.36-6.8c0,0-0.71,7.91-5.8,9.34C124.97,159.94,123.22,159.2,117.51,155.98z"
			/>
	</g>
</g>
</svg>
