<?xml version="1.0" encoding="utf-8"?>
<!-- Generator: Adobe Illustrator 23.0.3, SVG Export Plug-In . SVG Version: 6.00 Build 0)  -->
<svg version="1.1" id="Calque_1" xmlns="http://www.w3.org/2000/svg" xmlns:xlink="http://www.w3.org/1999/xlink" x="0px" y="0px"
	 viewBox="0 0 1190.55 841.89" style="enable-background:new 0 0 1190.55 841.89;" xml:space="preserve">
<style type="text/css">
	.st0{fill:none;stroke:#FFFFFF;stroke-width:4.8869;stroke-miterlimit:10;}
	.st1{fill:#BED137;}
	.st2{fill:#E98467;}
	.st3{fill:#FFF9D0;}
	.st4{fill:#009245;}
	.st5{fill:#C69C6C;}
	.st6{fill:#FCC139;}
	.st7{fill:#2F4766;}
	.st8{fill:none;}
	.st9{fill:#FFFFFF;}
	.st10{font-family:'LemongrassScript-Regular';}
	.st11{font-size:26.8781px;}
	.st12{fill:#2F4867;}
	.st13{font-size:16.2897px;}
</style>
<g>
	<path class="st0" d="M865.1,243.44c-36.15-62.42-92.17-111.89-159.41-139.77"/>
	<path class="st0" d="M865.1,243.44"/>
	<path class="st0" d="M909.31,408.51"/>
	<path class="st0" d="M900.01,486.6"/>
	<path class="st0" d="M842.75,607.24c26.72-35.34,46.49-76.24,57.27-120.65"/>
	<path class="st0" d="M842.75,607.24"/>
	<path class="st0" d="M638.76,733.05"/>
	<path class="st0" d="M638.76,733.05c-19.24,3.49-39.08,6.03-59.31,5.32c-69.64-2.44-92.85-16.7-92.85-16.7"/>
	<path class="st0" d="M364.19,658.47"/>
	<path class="st0" d="M281.29,549.82c19.85,41.8,48.23,78.77,82.89,108.65"/>
	<path class="st0" d="M281.29,549.82"/>
	<path class="st0" d="M280.79,268.25c-12.02,25.55-20.86,52.89-26,81.51c-3.43,19.06-5.22,38.7-5.22,58.75"/>
	<path class="st0" d="M280.79,268.25"/>
	<path class="st0" d="M467.34,98.18"/>
	<path class="st0" d="M554.19,79.59c-30.28,2.29-59.41,8.67-86.85,18.59"/>
	<g>
		<path class="st1" d="M263.83,195.31c12.46-5.1,26.47-24.84,34.21-21.58c7.74,3.26,5.7,34.21,19.14,35.02v50.09l15.07,2.85v-52.94
			c16.7-1.22,9.37-33.8,16.29-35.43c6.92-1.63,20.94,24.96,31.76,19.55c8.14-4.07-2.44-1.63-7.74-11.81
			c-5.29-10.18-3.83-16.29-14.54-17.1c-10.71-0.81-34.33-3.26-45.73,0c-11.4,3.26-37.87,2.85-43.17,17.1
			S254.87,198.98,263.83,195.31z"/>
		<path class="st2" d="M312.09,164.16c-50.5,13.85-133.98,48.87-121.77,0s83.08-43.98,101.81-28.1
			C310.87,151.94,312.09,164.16,312.09,164.16z"/>
		<path class="st2" d="M324.1,161.11c7.74-25.25,7.74-87.56-28.91-85.93s-60.99,27.59-33.75,49.84c0,0,38.64,4.33,50.45,38.94
			L324.1,161.11z"/>
		<path class="st2" d="M339.58,163.96c9.77-2.44,33.8,0.41,52.53,12.22c18.73,11.81,63.12,1.22,69.64-21.58
			s-36.65-23.62-51.72-20.36C394.96,137.48,339.58,163.96,339.58,163.96z"/>
		<path class="st2" d="M324.1,161.11c0,0,7.78-28.91,3.08-47.65c-4.71-18.73,36.43-41.95,76.74-28.51s14.99,45.74,2.81,50.15
			c-12.18,4.42-67.15,28.85-67.15,28.85L324.1,161.11z"/>
		<path class="st3" d="M324.1,199.39c-8.59-3.16-7.74-12.22-3.67-28.1c4.07-15.88,4.07-26.47,1.63-30.14s-2.04-8.14,4.07-8.14
			c6.11,0,5.7,3.67,4.48,7.74c-1.22,4.07-0.41,25.66,2.85,40.32C335.79,191.52,331.84,202.24,324.1,199.39z"/>
		<path class="st3" d="M320.44,171.29c-3.76,15.04-6.11-38.69-14.25-46.43s-10.18-17.1-6.52-17.1s8.14,4.48,9.37,11.81
			S321.25,168.03,320.44,171.29z"/>
		<path class="st3" d="M332.5,176.08c1.5,7.68,8.3-52.85,12.37-56.52c4.07-3.67,8.55-9.37,3.26-11.81
			c-5.29-2.44-7.74,4.48-8.55,11.81S331.53,171.1,332.5,176.08z"/>
		<path class="st3" d="M317.59,109.79c0.81-5.7,6.11-5.29,6.52,4.48c0.41,9.77,2.85,50.09,1.63,52.13
			c-1.22,2.04-3.26-38.28-5.29-43.98C318.4,116.72,316.77,115.49,317.59,109.79z"/>
		<g>
			<path class="st1" d="M729.31,786.02c-0.81-1.22,1.22-47.24-1.63-52.53c-2.85-5.29-35.02-19.14-36.65-50.5
				s22.81-50.91,21.99-58.24c-0.81-7.33-8.96-11.81-17.51-3.26s-21.1,26.48-30.95,24.84c-4.89-0.81,10.59-12.22,20.36-24.43
				c9.77-12.22,28.91-21.18,41.13-15.48c12.22,5.7,26.06,4.89,37.87,0.81c11.81-4.07,39.1,4.48,39.91,21.58
				c0.81,17.1-3.26,25.66-7.74,27.69s6.92-16.29,2.04-24.03c-4.89-7.74-30.14-23.62-31.77-4.48s19.55,21.18,13.44,55.39
				c-6.11,34.21-31.36,47.65-31.36,47.65v54.98H729.31z"/>
			<path class="st3" d="M709.76,689.91c-7.52-19.23-5.29-33.39,11-48.87c9.64-9.16,17.1-25.25,10.59-35.02
				c-6.52-9.77-15.48-15.88-22.81-12.22c-7.33,3.67-11,15.07-16.29,8.96c-5.29-6.11,5.7-17.92,15.07-16.7
				c9.37,1.22,32.17,1.21,32.17,39.1c0,4.89-0.41-26.88,8.96-36.65c9.37-9.77,14.25-8.55,16.29-6.11c2.04,2.44-2.44,7.33-8.14,7.74
				s-10.18,15.48-10.59,25.66s2.46-25.93,26.06-26.88c10.18-0.41,15.88,8.55,11.81,11c-4.07,2.44-7.74,0.41-11.4-4.07
				c-3.67-4.48-24.43,4.89-22.4,30.95s19.95,21.58,17.92,49.28c-1.47,20-15.04,29.73-28.91,29.73
				C724.83,705.79,713.43,699.28,709.76,689.91z"/>
			<path class="st3" d="M739.08,569.37c-7.32-0.56-11.81,1.22-8.96,8.14c2.85,6.92,8.14,48.87-0.41,55.79
				c-8.55,6.92-9.59,7.65-14.16,13.19c-4.57,5.54-21.42,26.55-2.68,48.69c8.28,9.79,39.55,20.69,51.47-5.09
				c6.49-14.03,5.25-31.23-8.58-46.86c-13.84-15.63-14.65-50.25-10.99-58.8C748.45,575.88,749.67,570.18,739.08,569.37z"/>
			<path class="st1" d="M730.53,668.73c0-13.85,0.41-24.43-6.92-21.58s-17.51,18.73-12.22,31.76c5.29,13.03,14.25,17.51,20.36,15.07
				c6.11-2.44,6.52-12.22,3.67-15.48S730.53,671.58,730.53,668.73z"/>
			<path class="st1" d="M743.56,657.74c2.08,3.86,2.85,11.4,0,17.1c-2.85,5.7-4.07,18.33,1.63,19.95
				c5.7,1.63,18.73-1.22,18.73-20.36s-11-29.73-15.88-27.69C743.16,648.78,740.71,652.44,743.56,657.74z"/>
		</g>
		<g>
			<path class="st4" d="M228.46,408.51c0,0-6.1,5.72-7.15,2.16c-1.05-3.56,0,0,0,0s3.43-11.3,3.43-21.07
				c0-9.77,0.41-21.99-2.44-21.58c-2.85,0.41-8.96,7.74-10.18,2.85s0.41-12.22,8.14-11.4c7.74,0.81,8.14,6.11,8.14,11
				C228.4,375.34,228.46,408.51,228.46,408.51"/>
			<path class="st5" d="M203.56,506.07c-7.65,6.86-25.86,18.44-28.91,20.77c-8.55,6.52,8.55-4.07,11.81-4.89
				c3.26-0.81,29.73-20.36,32.17-19.55s2.85,13.03,2.85,17.1s-1.22,17.51,0,23.21c1.22,5.7,2.85-15.48,3.67-23.62
				c0.81-8.14-0.21-25.77,5.29-28.91c5.7-3.26,19.14,1.63,30.54,2.85c6.34,0.68,19.14,4.07,26.47,6.11s2.44-2.44-11-5.7
				c-13.44-3.26-39.91-8.55-44.39-11.81l-1.22-28.1l-8.96,12.62l2.04,14.25C223.92,480.41,227.18,484.89,203.56,506.07z"/>
			<path class="st1" d="M210.77,436.77c6.35-19.37,10.63-34.35,19.58-27c8.94,7.35,15.89,34.22,2.52,50.01
				c-13.38,15.79-27.96,17.95-35.38,11.73c-7.42-6.22-3.51-20.07,1.97-23.32C204.94,444.94,209.47,440.75,210.77,436.77z"/>
		</g>
		<path class="st1" d="M422.75,702.74c-20.38-0.36-35.96-0.03-31.57-10.74s28.01-25.28,47.04-17.16s25.39,21.42,21.64,30.34
			c-3.75,8.92-18.14,9.27-22.86,4.99S426.95,702.81,422.75,702.74z"/>
		<g>
			<path class="st6" d="M346.66,154.14c5.16-0.52,14.5,5.38,10.28,8.39c-3.62,2.59-3.24,9.76-8.39,10.28
				c-5.16,0.52-9.27-3.84-9.79-9C338.24,158.66,341.5,154.67,346.66,154.14z"/>
			<path class="st6" d="M360.26,163.4c0.81-0.75,20.52-5.45,26.54-9.51s9.04-11.36-6.94-12.38c-15.97-1.02-37.04,15.29-26.22,21.24
				C356.7,164.43,360.26,163.4,360.26,163.4z"/>
			<path class="st7" d="M341.43,156.88c0,0,24.25-34.31,29.01-35.65c4.75-1.33,7.29,20.52-7.16,28.41S341.43,156.88,341.43,156.88z"
				/>
			<path class="st7" d="M347.91,164.02c0,0,40.31-4.55,48.01-11.21c7.7-6.66-14.68-10.02-21.26-7.1S347.91,164.02,347.91,164.02z"/>
			<path class="st6" d="M344.04,163.52c-4.92-3.11-10.85,0.3-9.41,9.84c1,6.59,3.57,9.53,3.57,9.53s8.65-6.94,8.7-10.92
				C346.94,167.99,346.27,164.94,344.04,163.52z"/>
			<path class="st7" d="M370.53,160.2c0,0-11.24-11.32-13.22-10.8c-1.99,0.52,5.91-3.78,5.91-3.78S371,157.8,370.53,160.2z"/>
			<path class="st7" d="M380.25,156.98c0,0-7.74-14.15-9.75-14.05c-2.02,0.09,2.43-1.25,7.66-1.46
				C383.39,141.26,380.25,156.98,380.25,156.98z"/>
			<path class="st7" d="M386.65,142.59c0,0,3.53,7.61,3.45,8.35c0,0,2.46-2.72,1.34-4.89C390.32,143.87,389.53,143.51,386.65,142.59
				z"/>
		</g>
		<g>
			<path class="st1" d="M865.74,389.98c12.46-5.1,26.47-24.84,34.21-21.58c7.74,3.26,5.7,34.21,19.14,35.02v50.09l15.07,2.85v-52.94
				c16.7-1.22,9.37-33.8,16.29-35.43c6.92-1.63,20.94,24.96,31.77,19.55c8.14-4.07-2.44-1.63-7.74-11.81
				c-5.29-10.18-3.83-16.29-14.54-17.1c-10.71-0.81-34.33-3.26-45.73,0c-11.4,3.26-37.87,2.85-43.17,17.1
				C865.74,389.98,856.78,393.64,865.74,389.98z"/>
			<path class="st2" d="M918.07,358.41c-50.5,13.85-133.98,48.87-121.77,0c12.22-48.87,83.08-43.98,101.81-28.1
				C916.85,346.2,918.07,358.41,918.07,358.41z"/>
			<path class="st2" d="M926.01,355.77c7.74-25.25,7.74-87.56-28.91-85.93c-36.65,1.63-60.99,27.59-33.75,49.84
				c0,0,38.64,4.33,50.45,38.94L926.01,355.77z"/>
			<path class="st2" d="M941.48,358.62c9.77-2.44,33.8,0.41,52.53,12.22s63.12,1.22,69.64-21.58s-36.65-23.62-51.72-20.36
				C996.87,332.15,941.48,358.62,941.48,358.62z"/>
			<path class="st2" d="M926.01,355.77c0,0,7.78-28.91,3.08-47.65c-4.7-18.73,36.43-41.95,76.74-28.51
				c40.32,13.44,14.99,45.74,2.81,50.15s-67.15,28.85-67.15,28.85L926.01,355.77z"/>
			<path class="st3" d="M926.01,394.05c-8.59-3.16-7.74-12.22-3.67-28.1c4.07-15.88,4.07-26.47,1.63-30.14
				c-2.44-3.67-2.04-8.14,4.07-8.14s5.7,3.67,4.48,7.74c-1.22,4.07-0.41,25.66,2.85,40.32C937.7,386.18,933.75,396.9,926.01,394.05z
				"/>
			<path class="st3" d="M922.34,365.95c-3.76,15.04-6.11-38.69-14.25-46.43c-8.14-7.74-10.18-17.1-6.52-17.1
				c3.67,0,8.14,4.48,9.37,11.81C912.16,321.56,923.16,362.69,922.34,365.95z"/>
			<path class="st3" d="M934.4,370.74c1.5,7.68,8.3-52.85,12.37-56.52s8.55-9.37,3.26-11.81c-5.29-2.44-7.74,4.48-8.55,11.81
				C940.67,321.56,933.43,365.77,934.4,370.74z"/>
			<path class="st3" d="M919.49,304.45c0.81-5.7,6.11-5.29,6.52,4.48c0.41,9.77,2.85,50.09,1.63,52.13s-3.26-38.28-5.29-43.98
				C920.31,311.38,918.68,310.16,919.49,304.45z"/>
			<g>
				<path class="st6" d="M905.24,346.46c-5.07-0.11-13.71,6.37-9.37,8.98c3.73,2.24,3.91,9.26,8.98,9.37s8.73-4.46,8.84-9.53
					C913.8,350.21,910.3,346.57,905.24,346.46z"/>
				<path class="st6" d="M892.7,356.54c-0.85-0.67-20.43-3.71-26.61-7.2s-9.7-10.37,5.8-12.61s37.29,12.02,27.21,18.66
					C896.25,357.27,892.7,356.54,892.7,356.54z"/>
				<path class="st7" d="M910.55,348.72c0,0-26.31-31.56-31.05-32.49s-5.51,20.57,9.19,27.14
					C903.39,349.94,910.55,348.72,910.55,348.72z"/>
				<path class="st7" d="M904.79,356.19c0,0-39.65-1.3-47.67-7.19s13.53-10.91,20.17-8.58
					C883.93,342.75,904.79,356.19,904.79,356.19z"/>
				<path class="st6" d="M908.52,355.4c4.55-3.41,10.6-0.55,9.93,8.86c-0.46,6.51-2.73,9.57-2.73,9.57s-8.98-6.1-9.33-9.97
					S906.45,356.95,908.52,355.4z"/>
				<path class="st7" d="M882.44,354.23c0,0,10.07-11.91,12.05-11.56s-6.06-3.22-6.06-3.22S881.79,351.92,882.44,354.23z"/>
				<path class="st7" d="M872.71,351.83c0,0,6.44-14.39,8.41-14.46s-2.47-1.02-7.58-0.82C868.43,336.76,872.71,351.83,872.71,351.83
					z"/>
				<path class="st7" d="M865.36,338.31c0,0-2.85,7.69-2.71,8.4c0,0-2.61-2.46-1.69-4.66S862.62,339.43,865.36,338.31z"/>
			</g>
		</g>
		<rect x="295.74" y="286.07" class="st8" width="87.31" height="25.44"/>
		<text transform="matrix(1 0 0 1 295.7444 305.4229)" class="st9 st10 st11">Fleur A</text>
		<rect x="390.63" y="631.75" class="st8" width="87.31" height="28.81"/>
		<text transform="matrix(1 0 0 1 390.6321 651.0982)" class="st9 st10 st11">Graine</text>
		<rect x="689.96" y="356.86" class="st8" width="87.31" height="28.81"/>
		<text transform="matrix(1 0 0 1 689.9559 376.2105)" class="st9 st10 st11">Fleur B</text>
		<rect x="594.25" y="532.79" class="st8" width="122.84" height="109.07"/>
		<text transform="matrix(1 0 0 1 594.2542 552.1392)"><tspan x="0" y="0" class="st9 st10 st11">Fruit en </tspan><tspan x="0" y="32.25" class="st9 st10 st11">formation</tspan></text>
		<rect x="277.42" y="401.66" class="st8" width="122.84" height="109.07"/>
		<text transform="matrix(1 0 0 1 277.4188 421.0074)"><tspan x="0" y="0" class="st9 st10 st11">Nouvelle </tspan><tspan x="0" y="32.25" class="st9 st10 st11">plante</tspan></text>
		<rect x="539.28" y="143.06" class="st8" width="206.32" height="113.55"/>
		<text transform="matrix(1 0 0 1 539.2762 154.7837)"><tspan x="0" y="0" class="st12 st10 st13">Le pollinisateur transporte le </tspan><tspan x="0" y="19.55" class="st12 st10 st13">pollen d’une fleur à une autre</tspan></text>
		<rect x="688.73" y="406.54" class="st8" width="193.29" height="113.55"/>
		<text transform="matrix(1 0 0 1 688.7352 418.2701)"><tspan x="0" y="0" class="st12 st10 st13">L’ovaire de la fleur fécondée </tspan><tspan x="0" y="19.55" class="st12 st10 st13">se transforme en un fruit </tspan><tspan x="0" y="39.1" class="st12 st10 st13">contenant des graines</tspan></text>
		<rect x="499.37" y="659.44" class="st8" width="189.63" height="89.93"/>
		<text transform="matrix(1 0 0 1 499.3665 671.1685)"><tspan x="0" y="0" class="st12 st10 st13">L’ovaire de la fleur fécondée </tspan><tspan x="0" y="19.55" class="st12 st10 st13">se transforme en un fruit </tspan><tspan x="0" y="39.1" class="st12 st10 st13">contenant des graines</tspan></text>
		<g>
			<path class="st6" d="M646.58,81.5c-5.18,2.12-11.1,12.48-5.55,13.22c4.77,0.63,8.04,7.66,13.22,5.55
				c5.18-2.12,6.89-8.36,4.77-13.54C656.9,81.54,651.76,79.39,646.58,81.5z"/>
			<path class="st6" d="M640.61,96.83c-1.1,0.45-14.7,17.6-21.42,21.64c-6.72,4.04-15.25,3.66-8.95-12.44
				c6.3-16.1,31.88-29.27,32.76-15.97C643.24,93.82,640.61,96.83,640.61,96.83z"/>
			<path class="st7" d="M655.06,84.41c0,0-6.52-44.91-10.44-48.53c-3.92-3.61-17.07,16.17-7.04,30.86S655.06,84.41,655.06,84.41z"/>
			<path class="st7" d="M653.46,92.32c0,0-26.91-34.58-37.39-37.92c-10.47-3.34-0.96,19.17,5.44,23.59S653.46,92.32,653.46,92.32z"
				/>
			<path class="st6" d="M655.1,88.63c2.04-5.95,9.34-7.08,14.57,1.93c3.62,6.23,3.44,10.44,3.44,10.44s-11.98,0-14.71-3.33
				C655.67,94.35,654.17,91.33,655.1,88.63z"/>
			<path class="st7" d="M632.8,105.42c0,0-5.95-16.17-4.54-17.88c1.42-1.71-6.4,4.06-6.4,4.06S630.23,104.79,632.8,105.42z"/>
			<path class="st7" d="M625.2,113.46c0,0-10.32-14.03-9.3-15.96c1.01-1.93-2.33,1.81-4.92,6.84S625.2,113.46,625.2,113.46z"/>
			<path class="st7" d="M608.19,113.15c0,0,5.84,6.93,6.6,7.18c0,0-3.78,1.17-5.4-0.92C607.77,117.33,607.78,116.4,608.19,113.15z"
				/>
		</g>
	</g>
</g>
</svg>
