<?xml version="1.0" encoding="utf-8"?>
<!-- Generator: Adobe Illustrator 23.0.3, SVG Export Plug-In . SVG Version: 6.00 Build 0)  -->
<svg version="1.1" id="Calque_1" xmlns="http://www.w3.org/2000/svg" xmlns:xlink="http://www.w3.org/1999/xlink" x="0px" y="0px"
	 viewBox="0 0 1133.86 2267.72" style="enable-background:new 0 0 1133.86 2267.72;" xml:space="preserve">
<style type="text/css">
	.st0{fill:none;stroke:#2F4766;stroke-width:5;stroke-miterlimit:10;stroke-dasharray:12,10,20;}
</style>
<path class="st0" d="M982.53,1544.53v275.28c0,0,27.71,165.72-150.15,166.22H309.67c-82.31,0-149.65-67.34-149.65-149.65v-121.71
	c0-82.31,67.34-149.65,149.65-149.65l302.85,0.5c82.31,0,146,19,147,105"/>
<path class="st0" d="M720.53,667.53c-1,61-54.69,74-137,74l-273.85-5.5c-82.31,0-149.65-67.34-149.65-149.65V464.67
	c0-82.31,67.34-149.65,149.65-149.65h522.71c82.31,0,151.15,28.5,149.65,149.65v121.71"/>
<path class="st0" d="M982.53,1544.53c0-122-67.84-181.5-150.15-181.5H309.67c-82.31,0-149.65-67.34-149.65-149.65v-121.71
	c0-82.31,67.34-149.65,149.65-149.65h522.71"/>
</svg>
